<?xml version="1.0" encoding="utf-8"?>
<!-- Generator: Adobe Illustrator 27.0.0, SVG Export Plug-In . SVG Version: 6.00 Build 0)  -->
<svg version="1.1" id="Layer_1" xmlns="http://www.w3.org/2000/svg" xmlns:xlink="http://www.w3.org/1999/xlink" x="0px" y="0px"
	 viewBox="0 0 160 170" style="enable-background:new 0 0 160 170;" xml:space="preserve">
<style type="text/css">
	.st0{fill-rule:evenodd;clip-rule:evenodd;fill:#60B32E;}
	.st1{fill-rule:evenodd;clip-rule:evenodd;}
	.st2{fill-rule:evenodd;clip-rule:evenodd;fill:#F79A1D;}
</style>
<g>
	<g>
		<path class="st0" d="M67.5,3.2c7.2,0,13.1,5.9,13.1,13.1c0,7.2-5.9,13.1-13.1,13.1s-13.1-5.9-13.1-13.1C54.4,9,60.2,3.2,67.5,3.2z
			"/>
		<path class="st0" d="M93.5,3.2c7.2,0,13.1,5.9,13.1,13.1c0,7.2-5.9,13.1-13.1,13.1c-7.2,0-13.1-5.9-13.1-13.1
			C80.4,9,86.3,3.2,93.5,3.2z"/>
	</g>
	<path class="st1" d="M100.2,19.8l29.3,51.5c5.4,9.6-1.7,15-7.1,5.4L93.1,25.3C87.7,15.7,93.1,11.9,100.2,19.8z"/>
	<path class="st1" d="M61.8,19.8L32.5,71.3c-5.4,9.6,1.7,15,7.1,5.4l29.3-51.5C74.3,15.7,68.9,11.9,61.8,19.8z"/>
	<path class="st2" d="M133,156.3c0,5.8-4.7,10.5-10.5,10.5H37.1c-5.8,0-10.5-4.7-10.5-10.5L16,92h127.6L133,156.3z M43.2,152.3
		c0,1.7,1.4,2.6,3.1,2.6H113c1.7,0,3.1-0.9,3.1-2.6v-4.1c0-1.7-1.4-3.1-3.1-3.1H46.2c-1.7,0-3.1,1.4-3.1,3.1V152.3z M33.4,130.7
		c0,1.7,1.4,2.6,3.1,2.6h87.8c1.7,0,3.1-0.9,3.1-2.6v-5.1c0-1.7-1.4-2.6-3.1-2.6H36.5c-1.7,0-3.1,0.9-3.1,2.6V130.7z M131.4,100.9
		H28.3c-1.7,0-3.1,0.9-3.1,2.6v5.1c0,1.7,1.4,2.6,3.1,2.6h103.2c1.7,0,3.1-0.9,3.1-2.6v-5.1C134.5,101.8,133.1,100.9,131.4,100.9z"
		/>
	<path class="st2" d="M15.2,68.9h129.7c13,0,13.9,17.6,0,17.9H15.2C0.8,86.7,2.4,68.9,15.2,68.9z"/>
</g>
</svg>
